<svg width="24" height="24" viewBox="0 0 24 24" fill="none" xmlns="http://www.w3.org/2000/svg">
<path d="M17 9.1697C16.8126 8.98345 16.5592 8.87891 16.295 8.87891C16.0308 8.87891 15.7774 8.98345 15.59 9.1697L12 12.7097L8.46001 9.1697C8.27265 8.98345 8.0192 8.87891 7.75501 8.87891C7.49082 8.87891 7.23737 8.98345 7.05001 9.1697C6.95628 9.26266 6.88189 9.37326 6.83112 9.49512C6.78035 9.61698 6.75421 9.74769 6.75421 9.8797C6.75421 10.0117 6.78035 10.1424 6.83112 10.2643C6.88189 10.3861 6.95628 10.4967 7.05001 10.5897L11.29 14.8297C11.383 14.9234 11.4936 14.9978 11.6154 15.0486C11.7373 15.0994 11.868 15.1255 12 15.1255C12.132 15.1255 12.2627 15.0994 12.3846 15.0486C12.5064 14.9978 12.617 14.9234 12.71 14.8297L17 10.5897C17.0937 10.4967 17.1681 10.3861 17.2189 10.2643C17.2697 10.1424 17.2958 10.0117 17.2958 9.8797C17.2958 9.74769 17.2697 9.61698 17.2189 9.49512C17.1681 9.37326 17.0937 9.26266 17 9.1697Z" fill="#E2012D"/>
</svg>
