<svg width="25" height="24" viewBox="0 0 25 24" fill="none" xmlns="http://www.w3.org/2000/svg">
<path d="M18.42 11.62C18.3724 11.4973 18.301 11.3851 18.21 11.29L13.21 6.29C13.1168 6.19676 13.0061 6.1228 12.8842 6.07234C12.7624 6.02188 12.6319 5.99591 12.5 5.99591C12.2337 5.99591 11.9783 6.1017 11.79 6.29C11.6968 6.38324 11.6228 6.49393 11.5723 6.61575C11.5219 6.73758 11.4959 6.86814 11.4959 7C11.4959 7.2663 11.6017 7.5217 11.79 7.71L15.09 11H7.5C7.23478 11 6.98043 11.1054 6.79289 11.2929C6.60536 11.4804 6.5 11.7348 6.5 12C6.5 12.2652 6.60536 12.5196 6.79289 12.7071C6.98043 12.8946 7.23478 13 7.5 13H15.09L11.79 16.29C11.6963 16.383 11.6219 16.4936 11.5711 16.6154C11.5203 16.7373 11.4942 16.868 11.4942 17C11.4942 17.132 11.5203 17.2627 11.5711 17.3846C11.6219 17.5064 11.6963 17.617 11.79 17.71C11.883 17.8037 11.9936 17.8781 12.1154 17.9289C12.2373 17.9797 12.368 18.0058 12.5 18.0058C12.632 18.0058 12.7627 17.9797 12.8846 17.9289C13.0064 17.8781 13.117 17.8037 13.21 17.71L18.21 12.71C18.301 12.6149 18.3724 12.5028 18.42 12.38C18.52 12.1365 18.52 11.8635 18.42 11.62Z" fill="#D4961F"/>
</svg>
