<svg width="56" height="56" viewBox="0 0 56 56" fill="none" xmlns="http://www.w3.org/2000/svg">
<rect x="1" y="1" width="54" height="54" fill="#091626"/>
<path d="M31.5402 27.29L25.8802 21.64C25.7873 21.5463 25.6767 21.4719 25.5548 21.4211C25.4329 21.3704 25.3022 21.3442 25.1702 21.3442C25.0382 21.3442 24.9075 21.3704 24.7856 21.4211C24.6638 21.4719 24.5532 21.5463 24.4602 21.64C24.274 21.8274 24.1694 22.0809 24.1694 22.345C24.1694 22.6092 24.274 22.8627 24.4602 23.05L29.4102 28.05L24.4602 33C24.274 33.1874 24.1694 33.4409 24.1694 33.705C24.1694 33.9692 24.274 34.2227 24.4602 34.41C24.5528 34.5045 24.6633 34.5797 24.7852 34.6312C24.907 34.6827 25.0379 34.7095 25.1702 34.71C25.3025 34.7095 25.4334 34.6827 25.5553 34.6312C25.6772 34.5797 25.7876 34.5045 25.8802 34.41L31.5402 28.76C31.6417 28.6664 31.7227 28.5527 31.7781 28.4262C31.8336 28.2997 31.8622 28.1631 31.8622 28.025C31.8622 27.8869 31.8336 27.7503 31.7781 27.6238C31.7227 27.4973 31.6417 27.3837 31.5402 27.29Z" fill="#D4961F"/>
<rect x="1" y="1" width="54" height="54" stroke="#D4961F" stroke-width="2"/>
</svg>
