<svg width="56" height="56" viewBox="0 0 56 56" fill="none" xmlns="http://www.w3.org/2000/svg">
<rect x="1" y="1" width="54" height="54" fill="#091626"/>
<path d="M24.5002 28.8L30.2002 34.4C30.6002 34.8 31.2002 34.8 31.6002 34.4C32.0002 34 32.0002 33.4 31.6002 33L26.7002 28L31.6002 23C32.0002 22.6 32.0002 22 31.6002 21.6C31.4002 21.4 31.2002 21.3 30.9002 21.3C30.6002 21.3 30.4002 21.4 30.2002 21.6L24.5002 27.2C24.1002 27.7 24.1002 28.3 24.5002 28.8C24.5002 28.7 24.5002 28.7 24.5002 28.8Z" fill="#D4961F"/>
<rect x="1" y="1" width="54" height="54" stroke="#D4961F" stroke-width="2"/>
</svg>
