<svg width="56" height="56" viewBox="0 0 56 56" fill="none" xmlns="http://www.w3.org/2000/svg">
<rect x="1" y="1" width="54" height="54" fill="white"/>
<path d="M24.5 28.8008L30.2 34.4008C30.6 34.8008 31.2 34.8008 31.6 34.4008C32 34.0008 32 33.4008 31.6 33.0008L26.7 28.0008L31.6 23.0008C32 22.6008 32 22.0008 31.6 21.6008C31.4 21.4008 31.2 21.3008 30.9 21.3008C30.6 21.3008 30.4 21.4008 30.2 21.6008L24.5 27.2008C24.1 27.7008 24.1 28.3008 24.5 28.8008C24.5 28.7008 24.5 28.7008 24.5 28.8008Z" fill="#E2012D"/>
<rect x="1" y="1" width="54" height="54" stroke="#E2012D" stroke-width="2"/>
</svg>
