<svg width="56" height="56" viewBox="0 0 56 56" fill="none" xmlns="http://www.w3.org/2000/svg">
<rect x="1" y="1" width="54" height="54" fill="white"/>
<path d="M31.54 27.2895L25.88 21.6395C25.787 21.5458 25.6764 21.4714 25.5546 21.4207C25.4327 21.3699 25.302 21.3438 25.17 21.3438C25.038 21.3438 24.9073 21.3699 24.7854 21.4207C24.6635 21.4714 24.5529 21.5458 24.46 21.6395C24.2737 21.8269 24.1692 22.0804 24.1692 22.3445C24.1692 22.6087 24.2737 22.8622 24.46 23.0495L29.41 28.0495L24.46 32.9995C24.2737 33.1869 24.1692 33.4404 24.1692 33.7045C24.1692 33.9687 24.2737 34.2222 24.46 34.4095C24.5526 34.504 24.663 34.5792 24.7849 34.6307C24.9068 34.6822 25.0377 34.709 25.17 34.7095C25.3023 34.709 25.4332 34.6822 25.555 34.6307C25.6769 34.5792 25.7874 34.504 25.88 34.4095L31.54 28.7595C31.6415 28.6659 31.7225 28.5523 31.7779 28.4258C31.8333 28.2993 31.8619 28.1627 31.8619 28.0245C31.8619 27.8864 31.8333 27.7498 31.7779 27.6233C31.7225 27.4968 31.6415 27.3832 31.54 27.2895Z" fill="#E2012D"/>
<rect x="1" y="1" width="54" height="54" stroke="#E2012D" stroke-width="2"/>
</svg>
