<svg class="svg-icon" style="width: 1em;height: 1em;vertical-align: middle;fill: currentColor;overflow: hidden;" viewBox="0 0 1024 1024" version="1.1" xmlns="http://www.w3.org/2000/svg"><path d="M516.5 75.5v-40c0-2.2-1.8-4-4-4H510c-2.2 0-4 1.8-4 4v40c0 2.2 1.8 4 4 4h2.5c2.2 0 4-1.8 4-4zM576.6 78.3l19.7-27.9c1.3-1.8 0.8-4.3-1-5.6l-2-1.4c-1.8-1.3-4.3-0.8-5.6 1L568 72.3c-1.3 1.8-0.8 4.3 1 5.6l2 1.4c1.9 1.2 4.4 0.8 5.6-1zM446.2 78.3l-19.7-27.9c-1.3-1.8-0.8-4.3 1-5.6l2-1.4c1.8-1.3 4.3-0.8 5.6 1l19.7 27.9c1.3 1.8 0.8 4.3-1 5.6l-2 1.4c-1.8 1.2-4.3 0.8-5.6-1zM513.3 1000c-50.4 0-99.3-9.9-145.3-29.3-44.4-18.8-84.4-45.7-118.6-80s-61.2-74.2-80-118.6c-19.5-46-29.3-94.9-29.3-145.3s9.9-99.3 29.3-145.3c18.8-44.4 45.7-84.4 80-118.6s74.2-61.2 118.6-80c46-19.5 94.9-29.3 145.3-29.3s99.3 9.9 145.3 29.3c44.4 18.8 84.4 45.7 118.6 80s61.2 74.2 80 118.6c19.5 46 29.3 94.9 29.3 145.3s-9.9 99.3-29.3 145.3c-18.8 44.4-45.7 84.4-80 118.6s-74.2 61.2-118.6 80c-46 19.4-94.9 29.3-145.3 29.3z m0-730.4c-197 0-357.2 160.2-357.2 357.2S316.3 984 513.3 984s357.2-160.2 357.2-357.2c0-196.9-160.2-357.2-357.2-357.2z"  /><path d="M512 922.3c-78.9 0-153.1-30.7-208.9-86.5-55.8-55.8-86.5-130-86.5-208.9s30.7-153.1 86.5-208.9c55.8-55.8 130-86.5 208.9-86.5s153.1 30.7 208.9 86.5c55.8 55.8 86.5 130 86.5 208.9S776.7 780 720.9 835.8c-55.8 55.8-130 86.5-208.9 86.5z m0-585c-159.6 0-289.5 129.9-289.5 289.5S352.4 916.3 512 916.3s289.5-129.9 289.5-289.5S671.6 337.3 512 337.3z"  /><path d="M512 927.3c-80.3 0-155.7-31.3-212.5-88s-88-132.2-88-212.5 31.3-155.7 88-212.5c56.8-56.8 132.2-88 212.5-88 80.3 0 155.7 31.3 212.5 88 56.8 56.8 88 132.2 88 212.5s-31.3 155.7-88 212.5-132.2 88-212.5 88z m0-585c-156.9 0-284.5 127.6-284.5 284.5S355.1 911.3 512 911.3s284.5-127.6 284.5-284.5S668.9 342.3 512 342.3zM293.8 382.4c-1.1 0-2.2-0.5-3-1.4-1.5-1.7-1.3-4.2 0.4-5.6 20.8-18.2 43.7-33.9 68.2-46.5 2-1 4.4-0.2 5.4 1.7 1 2 0.2 4.4-1.7 5.4-23.9 12.3-46.3 27.5-66.6 45.4-0.8 0.7-1.7 1-2.7 1zM253.4 424.9c-0.9 0-1.8-0.3-2.5-0.9-1.7-1.4-2-3.9-0.6-5.6 7.2-9.1 15-17.9 23.2-26.2 1.5-1.6 4.1-1.6 5.7 0 1.6 1.5 1.6 4.1 0 5.7-8 8.1-15.6 16.7-22.6 25.6-0.9 0.8-2 1.4-3.2 1.4zM509.9 269.4L397 175.1l25-64.1h179.1l21.4 64.3-112.6 94.1z m-93.8-99.2l93.8 78.3L604 170l-14.3-43H432.9l-16.8 43.2z"  /><path d="M609.9 176.6H412.7c-2.2 0-4-1.8-4-4v-2.5c0-2.2 1.8-4 4-4h197.2c2.2 0 4 1.8 4 4v2.5c0 2.2-1.8 4-4 4z"  /><path d="M507.6 130.1l-87 38.1c-2.7 1.2-5.7-0.2-6.8-3.2-1.1-2.9 0.2-6.3 2.9-7.5l87-38.1c2.7-1.2 5.7 0.2 6.8 3.2 1.1 3-0.2 6.3-2.9 7.5z"  /><path d="M514.2 130.1l87 38.1c2.7 1.2 5.7-0.2 6.8-3.2 1.1-2.9-0.2-6.3-2.9-7.5l-87-38.1c-2.7-1.2-5.7 0.2-6.8 3.2-1.1 3 0.3 6.3 2.9 7.5zM539.5 957.8c-2.1 0-3.8-1.6-4-3.7-0.2-2.2 1.5-4.1 3.7-4.3 109.5-8.3 206.8-70.8 260.4-167 1.1-1.9 3.5-2.6 5.4-1.5 1.9 1.1 2.6 3.5 1.5 5.4-26.5 47.5-64.6 88.4-110.3 118.1-46.8 30.4-100.9 48.8-156.5 53h-0.2z"  /></svg>