<svg width="32" height="32" viewBox="0 0 32 32" fill="none" xmlns="http://www.w3.org/2000/svg">
<path d="M15.0767 6.21993C15.4183 5.39864 16.5817 5.39864 16.9233 6.21993L18.9395 11.0673C19.0835 11.4136 19.4091 11.6502 19.7829 11.6801L25.0161 12.0997C25.9027 12.1707 26.2623 13.2773 25.5867 13.8559L21.5996 17.2713C21.3148 17.5153 21.1904 17.8981 21.2774 18.2628L22.4956 23.3695C22.702 24.2348 21.7607 24.9186 21.0016 24.455L16.5213 21.7184C16.2012 21.5229 15.7988 21.5229 15.4787 21.7184L10.9984 24.455C10.2393 24.9186 9.29805 24.2348 9.50444 23.3695L10.7226 18.2628C10.8096 17.8981 10.6852 17.5153 10.4004 17.2713L6.41328 13.8559C5.73774 13.2773 6.09727 12.1707 6.98392 12.0997L12.2171 11.6801C12.5909 11.6502 12.9165 11.4136 13.0605 11.0673L15.0767 6.21993Z" fill="#D4961F"/>
</svg>
