<svg width="24" height="24" viewBox="0 0 24 24" fill="none" xmlns="http://www.w3.org/2000/svg">
<path d="M18.0001 4.47942C16.4088 2.88812 14.2505 1.99414 12.0001 1.99414C9.74961 1.99414 7.59135 2.88812 6.00005 4.47942C4.40875 6.07072 3.51477 8.22899 3.51477 10.4794C3.51477 12.7299 4.40875 14.8881 6.00005 16.4794L11.2701 21.7594C11.363 21.8532 11.4736 21.9275 11.5955 21.9783C11.7173 22.0291 11.848 22.0552 11.9801 22.0552C12.1121 22.0552 12.2428 22.0291 12.3646 21.9783C12.4865 21.9275 12.5971 21.8532 12.6901 21.7594L18.0001 16.4294C19.5847 14.8447 20.4749 12.6955 20.4749 10.4544C20.4749 8.21337 19.5847 6.0641 18.0001 4.47942ZM16.5701 14.9994L12.0001 19.5894L7.43005 14.9994C6.5272 14.0957 5.91253 12.9447 5.66375 11.6917C5.41497 10.4388 5.54324 9.14017 6.03236 7.9601C6.52147 6.78004 7.34947 5.77147 8.41168 5.0619C9.4739 4.35233 10.7226 3.9736 12.0001 3.9736C13.2775 3.9736 14.5262 4.35233 15.5884 5.0619C16.6506 5.77147 17.4786 6.78004 17.9677 7.9601C18.4569 9.14017 18.5851 10.4388 18.3364 11.6917C18.0876 12.9447 17.4729 14.0957 16.5701 14.9994ZM9.00005 7.40942C8.19277 8.21919 7.73945 9.31599 7.73945 10.4594C7.73945 11.6029 8.19277 12.6997 9.00005 13.5094C9.59981 14.1102 10.3636 14.5205 11.1957 14.6888C12.0278 14.8571 12.891 14.776 13.6771 14.4556C14.4632 14.1351 15.1372 13.5897 15.6145 12.8877C16.0918 12.1856 16.3512 11.3583 16.3601 10.5094C16.3646 9.94263 16.2554 9.38068 16.039 8.85681C15.8225 8.33294 15.5033 7.85778 15.1001 7.45942C14.7037 7.054 14.2311 6.73096 13.7095 6.50889C13.1878 6.28682 12.6274 6.1701 12.0605 6.16545C11.4935 6.1608 10.9313 6.26832 10.406 6.48181C9.8808 6.6953 9.40297 7.01055 9.00005 7.40942ZM13.6901 12.0894C13.3111 12.4742 12.8103 12.7153 12.2732 12.7717C11.7361 12.828 11.1961 12.6961 10.7456 12.3983C10.295 12.1006 9.96185 11.6557 9.80306 11.1395C9.64427 10.6233 9.6697 10.0681 9.87501 9.56858C10.0803 9.06909 10.4528 8.65644 10.9286 8.40116C11.4045 8.14588 11.9543 8.06383 12.484 8.16904C13.0137 8.27425 13.4904 8.56018 13.8326 8.97795C14.1748 9.39573 14.3612 9.91939 14.3601 10.4594C14.3455 11.0767 14.0865 11.6629 13.6401 12.0894H13.6901Z" fill="#E2012D"/>
</svg>
