<svg width="25" height="24" viewBox="0 0 25 24" fill="none" xmlns="http://www.w3.org/2000/svg">
<path d="M21.65 2.86025C21.2679 2.47082 20.7835 2.19747 20.2526 2.07183C19.7217 1.94619 19.1661 1.97338 18.65 2.15025L4.49999 6.88025C3.9293 7.06705 3.43068 7.4264 3.07294 7.90869C2.71521 8.39098 2.516 8.97242 2.50283 9.57276C2.48966 10.1731 2.66318 10.7627 2.99942 11.2602C3.33566 11.7577 3.81804 12.1386 4.37999 12.3503L9.61999 14.3503C9.73931 14.3959 9.84795 14.4656 9.93913 14.5551C10.0303 14.6445 10.1021 14.7518 10.15 14.8703L12.15 20.1203C12.3536 20.6742 12.723 21.152 13.208 21.4884C13.6929 21.8248 14.2698 22.0036 14.86 22.0003H14.93C15.531 21.9893 16.1135 21.7906 16.5959 21.4319C17.0783 21.0733 17.4364 20.5727 17.62 20.0003L22.35 5.83025C22.522 5.31919 22.5476 4.7702 22.4239 4.24534C22.3002 3.72048 22.0321 3.24071 21.65 2.86025ZM20.5 5.20025L15.72 19.3803C15.6645 19.5597 15.553 19.7167 15.4019 19.8283C15.2507 19.9398 15.0678 20.0001 14.88 20.0003C14.6932 20.0033 14.51 19.9495 14.3546 19.8459C14.1992 19.7423 14.079 19.5938 14.01 19.4203L12.01 14.1703C11.865 13.7888 11.6414 13.4421 11.3537 13.1526C11.066 12.8632 10.7206 12.6375 10.34 12.4903L5.08999 10.4903C4.91288 10.4254 4.76064 10.3065 4.65477 10.1503C4.5489 9.99423 4.49476 9.8088 4.49999 9.62025C4.50014 9.4324 4.5604 9.24952 4.67196 9.09838C4.78352 8.94724 4.94052 8.83576 5.11999 8.78025L19.3 4.05025C19.4628 3.9839 19.6413 3.96613 19.814 3.99908C19.9867 4.03203 20.1462 4.1143 20.2731 4.23594C20.4 4.35758 20.489 4.51338 20.5293 4.68451C20.5695 4.85565 20.5594 5.03478 20.5 5.20025Z" fill="#E2012D"/>
</svg>
