<svg width="36" height="24" viewBox="0 0 36 24" fill="none" xmlns="http://www.w3.org/2000/svg">
<path fill-rule="evenodd" clip-rule="evenodd" d="M4.19 16.0386C4.075 16.8961 3.92 18.6324 4.2875 20.1036C4.72625 21.8574 5.8075 23.2499 8 23.2499H28C30.1925 23.2499 31.2737 21.8574 31.7125 20.1036C32.08 18.6324 31.925 16.8961 31.81 16.0386C33.8725 15.3024 35.5 12.8774 35.5 9.86988C35.5 6.37238 33.3 3.66489 30.775 3.47989C30.3333 3.29584 29.8882 3.11998 29.44 2.95239L25.0387 14.6036C26.4525 14.9299 27.8575 15.3549 29.2562 15.8774C29.2602 15.9168 29.266 15.956 29.2737 15.9949C29.2737 15.9949 29.6763 17.9399 29.2875 19.4961C29.125 20.1436 28.8088 20.7499 28 20.7499H8C7.19125 20.7499 6.875 20.1436 6.7125 19.4961C6.32375 17.9399 6.72625 15.9949 6.72625 15.9949C6.7325 15.9586 6.73875 15.9236 6.7425 15.8874L6.94375 15.8149L12.4175 1.23738C9.93484 1.702 7.51506 2.45545 5.2075 3.48238C2.6925 3.67363 0.5 6.37863 0.5 9.86988C0.5 12.8774 2.1275 15.3024 4.19 16.0386ZM15.2312 0.857385L9.965 14.8799C11.505 14.4737 13.0724 14.18 14.655 14.0011L19.6138 0.799885C18.1535 0.711412 16.6887 0.730631 15.2312 0.857385ZM22.185 1.06239L17.395 13.8161C19.1176 13.776 20.8404 13.8822 22.545 14.1336L27.07 2.15114C25.4708 1.66797 23.838 1.30405 22.185 1.06239Z" fill="#D4961F"/>
</svg>
