<svg width="60" height="60" viewBox="0 0 60 60" fill="none" xmlns="http://www.w3.org/2000/svg">
<path fill-rule="evenodd" clip-rule="evenodd" d="M30.625 8.75C18.5625 8.75 8.75 18.5625 8.75 30.625C8.75 42.6875 18.5625 52.5 30.625 52.5C42.6875 52.5 52.5 42.6875 52.5 30.625C52.5 18.5625 42.6875 8.75 30.625 8.75M30.625 56.25C16.495 56.25 5 44.755 5 30.625C5 16.495 16.495 5 30.625 5C44.755 5 56.25 16.495 56.25 30.625C56.25 44.755 44.755 56.25 30.625 56.25" fill="white"/>
<path fill-rule="evenodd" clip-rule="evenodd" d="M27.8345 25.216C27.392 27.7185 27.3845 33.696 27.827 36.071C30.022 35.296 34.777 32.171 36.057 30.6235C34.782 29.121 30.087 26.061 27.8345 25.216V25.216ZM27.0695 40.0035C26.3945 40.0035 25.7545 39.811 25.232 39.291C24.8295 38.8935 23.7545 37.831 23.7495 30.8335C23.747 23.4035 24.8645 22.2985 25.232 21.931C26.5395 20.636 28.6695 21.5235 29.577 21.9035C30.877 22.446 39.9995 27.1185 39.9995 30.6135C39.9995 33.8885 31.7895 38.4685 29.692 39.3435C28.8745 39.6835 27.942 40.0035 27.0695 40.0035V40.0035Z" fill="white"/>
</svg>
