<svg class="svg-icon" style="width: 1em; height: 1em;vertical-align: middle;fill: currentColor;overflow: hidden;" viewBox="0 0 1024 1024" version="1.1" xmlns="http://www.w3.org/2000/svg"><path d="M569.886385 512l377.267413-377.266389c15.985066-15.985066 15.985066-41.901319 0-57.886385-15.985066-15.986089-41.901319-15.984043-57.886385 0L512 454.112592 134.732587 76.846202c-15.985066-15.985066-41.901319-15.985066-57.886385 0s-15.985066 41.901319 0 57.886385l377.267413 377.266389L76.846202 889.266389c-15.985066 15.985066-15.985066 41.901319 0 57.886385 7.993045 7.993045 18.467607 11.989055 28.943193 11.989055s20.951171-3.996011 28.943193-11.989055l377.267413-377.266389L889.267413 947.152774c7.993045 7.993045 18.467607 11.989055 28.943193 11.989055 10.474562 0 20.951171-3.996011 28.943193-11.989055 15.985066-15.985066 15.985066-41.901319 0-57.886385L569.886385 512z"  /></svg>