<svg width="60" height="60" viewBox="0 0 60 60" fill="none" xmlns="http://www.w3.org/2000/svg">
<path fill-rule="evenodd" clip-rule="evenodd" d="M9.285 36.0581C9.1125 37.3443 8.88 39.9487 9.43125 42.1556C10.0894 44.7862 11.7113 46.8749 15 46.8749H45C48.2887 46.8749 49.9106 44.7862 50.5687 42.1556C51.12 39.9487 50.8875 37.3443 50.715 36.0581C53.8088 34.9537 56.25 31.3162 56.25 26.8049C56.25 21.5587 52.95 17.4974 49.1625 17.2199C48.4999 16.9439 47.8323 16.6801 47.16 16.4287L40.5581 33.9056C42.6788 34.3949 44.7862 35.0324 46.8844 35.8162C46.8902 35.8753 46.899 35.9342 46.9106 35.9924C46.9106 35.9924 47.5144 38.9099 46.9313 41.2443C46.6875 42.2156 46.2131 43.1249 45 43.1249H15C13.7869 43.1249 13.3125 42.2156 13.0687 41.2443C12.4856 38.9099 13.0894 35.9924 13.0894 35.9924C13.0988 35.9381 13.1081 35.8856 13.1137 35.8312L13.4156 35.7224L21.6263 13.8562C17.9023 14.5531 14.2726 15.6833 10.8112 17.2237C7.03875 17.5106 3.75 21.5681 3.75 26.8049C3.75 31.3162 6.19125 34.9537 9.285 36.0581ZM25.8469 13.2862L17.9475 34.32C20.2575 33.7107 22.6087 33.2702 24.9825 33.0018L32.4206 13.1999C30.2302 13.0672 28.033 13.0961 25.8469 13.2862ZM36.2775 13.5937L29.0925 32.7243C31.6763 32.6641 34.2606 32.8234 36.8175 33.2006L43.605 15.2268C41.2062 14.5021 38.757 13.9562 36.2775 13.5937Z" fill="#E2012D"/>
</svg>
