<svg width="21" height="21" viewBox="0 0 21 21" fill="none" xmlns="http://www.w3.org/2000/svg">
<path d="M19.65 1.85977C19.268 1.47033 18.7835 1.19698 18.2526 1.07134C17.7217 0.945697 17.1661 0.972887 16.65 1.14977L2.5 5.87977C1.92932 6.06657 1.43069 6.42591 1.07296 6.9082C0.715221 7.39049 0.516019 7.97193 0.502849 8.57227C0.489679 9.1726 0.663191 9.76223 0.999431 10.2597C1.33567 10.7572 1.81806 11.1381 2.38 11.3498L7.62 13.3498C7.73932 13.3954 7.84796 13.4651 7.93915 13.5546C8.03033 13.644 8.10211 13.7513 8.15 13.8698L10.15 19.1198C10.3536 19.6738 10.723 20.1515 11.208 20.4879C11.6929 20.8244 12.2698 21.0031 12.86 20.9998H12.93C13.531 20.9888 14.1136 20.7901 14.596 20.4314C15.0783 20.0728 15.4364 19.5722 15.62 18.9998L20.35 4.82977C20.522 4.3187 20.5476 3.76971 20.4239 3.24485C20.3002 2.72 20.0321 2.24022 19.65 1.85977ZM18.5 4.19977L13.72 18.3798C13.6645 18.5592 13.553 18.7162 13.4019 18.8278C13.2507 18.9394 13.0679 18.9996 12.88 18.9998C12.6933 19.0028 12.51 18.949 12.3546 18.8454C12.1992 18.7418 12.079 18.5933 12.01 18.4198L10.01 13.1698C9.86501 12.7883 9.64139 12.4416 9.35368 12.1521C9.06598 11.8627 8.72061 11.637 8.34 11.4898L3.09 9.48977C2.9129 9.42487 2.76066 9.30597 2.65479 9.14985C2.54892 8.99374 2.49477 8.80832 2.5 8.61977C2.50016 8.43191 2.56042 8.24903 2.67198 8.09789C2.78354 7.94675 2.94053 7.83527 3.12 7.77977L17.3 3.04977C17.4628 2.98341 17.6413 2.96564 17.814 2.99859C17.9867 3.03154 18.1462 3.11381 18.2731 3.23545C18.4 3.35709 18.489 3.5129 18.5293 3.68403C18.5695 3.85516 18.5594 4.03429 18.5 4.19977Z" fill="#D4961F"/>
</svg>
